Coordinates
version=1
nRows=22
nColumns=24
inDegrees=yes

Units are S.I. units (second, meters, Newtons, ...)
Angles are in degrees.

endheader
time	pelvis_tilt	pelvis_list	pelvis_rotation	pelvis_tx	pelvis_ty	pelvis_tz	hip_flexion_r	hip_adduction_r	hip_rotation_r	knee_angle_r	ankle_angle_r	subtalar_angle_r	mtp_angle_r	hip_flexion_l	hip_adduction_l	hip_rotation_l	knee_angle_l	ankle_angle_l	subtalar_angle_l	mtp_angle_l	lumbar_extension	lumbar_bending	lumbar_rotation
      1.28300000	     -2.02594452	      6.20503801	     -1.94238124	      0.33424515	      0.90389310	      0.29914324	     15.56456233	    -11.31582151	    -10.08837937	    -73.23044943	      0.75277566	      2.60482704	      8.47943722	     13.34111270	      9.71642907	     -1.26156732	    -19.36592696	      9.63470522	     -8.52362427	      0.58600166	     -4.13834588	     -9.06996631	      2.64682157
      1.28716667	     -2.03009950	      5.96573601	     -1.83227748	      0.33922090	      0.90513400	      0.29890021	     16.22771389	    -11.05182697	    -10.29302311	    -73.01804522	      1.17492364	      2.72249820	      8.47387275	     12.70721357	      9.51274583	     -1.05694880	    -18.83887377	      9.64081069	     -8.46459092	      0.58157803	     -4.18925463	     -8.76716474	      2.47010896
      1.29133333	     -1.98901538	      5.74644645	     -1.71183023	      0.34423722	      0.90642743	      0.29862457	     16.81519417	    -10.82653483	    -10.51818367	    -72.73150287	      1.55619887	      2.93901548	      8.45979961	     11.98918430	      9.34246374	     -0.78102488	    -18.23738705	      9.65810282	     -8.47954718	      0.57279266	     -4.28449920	     -8.51273343	      2.10579257
      1.29550000	     -1.98649565	      5.48593104	     -1.58563670	      0.34919423	      0.90763612	      0.29837897	     17.43075190	    -10.53456993	    -10.73907389	    -72.37364866	      1.94465001	      3.11997855	      8.46284552	     11.34923691	      9.10836570	     -0.57230025	    -17.70412006	      9.64984992	     -8.41230995	      0.56909456	     -4.34745612	     -8.18810923	      1.93445172
      1.29966667	     -1.94022518	      5.23306668	     -1.44928174	      0.35417225	      0.90888319	      0.29810602	     17.97181741	    -10.26536352	    -10.98297932	    -71.94311167	      2.32028602	      3.37325578	      8.46866964	     10.64248144	      8.88722919	     -0.32777591	    -17.12812747	      9.65567531	     -8.36808697	      0.56572472	     -4.46497894	     -7.87894861	      1.66634989
      1.30383333	     -1.88035543	      4.98829928	     -1.31193871	      0.35915254	      0.91011229	      0.29782871	     18.48198957	    -10.00793569	    -11.23013740	    -71.45001219	      2.67465010	      3.64184432	      8.47725606	      9.91499696	      8.67272622	     -0.07752542	    -16.53371717	      9.65572708	     -8.34340765	      0.56158150	     -4.59180466	     -7.58130596	      1.35481714
      1.30800000	     -1.80410633	      4.74928147	     -1.16553353	      0.36414900	      0.91132546	      0.29752979	     18.95211746	     -9.76918828	    -11.50108589	    -70.89363052	      3.01620355	      3.91773909	      8.48938872	      9.16432413	      8.46127410	      0.16863576	    -15.92277549	      9.65185818	     -8.34130935	      0.55693735	     -4.71277104	     -7.29985986	      1.01530911
      1.31216667	     -1.73683125	      4.49408601	     -1.01765836	      0.36910567	      0.91248257	      0.29724458	     19.41856210	     -9.50263841	    -11.76454465	    -70.27282150	      3.34827501	      4.19704970	      8.50489903	      8.43761279	      8.22422220	      0.40259307	    -15.33319560	      9.64024029	     -8.30611074	      0.55387712	     -4.84758702	     -6.98371778	      0.73862555
      1.31633333	     -1.65906979	      4.24832997	     -0.86510638	      0.37405216	      0.91360792	      0.29695215	     19.85766600	     -9.25039224	    -12.03403767	    -69.59602679	      3.68351048	      4.47776679	      8.52715427	      7.69787964	      7.99378998	      0.64016038	    -14.72816904	      9.57671276	     -8.29426367	      0.54989338	     -4.99610266	     -6.68175862	      0.40676385
      1.32050000	     -1.56820620	      3.98455171	     -0.70966137	      0.37899085	      0.91470670	      0.29667468	     20.25957763	     -8.97503153	    -12.31085306	    -68.84542959	      3.98489803	      4.77390742	      8.54501713	      6.95885753	      7.73472956	      0.85338997	    -14.15571154	      9.60186247	     -8.22613086	      0.55086908	     -5.15867363	     -6.35864190	      0.17977187
      1.32466667	     -1.46606043	      3.73985611	     -0.55558443	      0.38394007	      0.91576196	      0.29638395	     20.63576424	     -8.72873581	    -12.59329829	    -68.04621357	      4.28717974	      5.05364404	      8.56423066	      6.19975478	      7.49258237	      1.05829122	    -13.55679635	      9.58514766	     -8.17181391	      0.55275860	     -5.32626655	     -6.04166511	     -0.10260311
      1.32883333	     -1.35966261	      3.49348347	     -0.39720648	      0.38886937	      0.91677051	      0.29610099	     20.99018548	     -8.47726074	    -12.87571945	    -67.18635034	      4.57157858	      5.32492802	      8.58294296	      5.44556225	      7.24284806	      1.26179540	    -12.97052875	      9.57001505	     -8.11868087	      0.55643934	     -5.50360664	     -5.73134505	     -0.37514755
      1.33300000	     -1.24680803	      3.25495195	     -0.24035844	      0.39379180	      0.91772556	      0.29583107	     21.32277195	     -8.23265741	    -13.15637235	    -66.27265880	      4.84338952	      5.57335836	      8.60129125	      4.68723371	      6.99538742	      1.45630757	    -12.38282175	      9.54969934	     -8.06571641	      0.56281749	     -5.68511161	     -5.43123082	     -0.65859068
      1.33716667	     -1.13344759	      3.02051508	     -0.08121048	      0.39870028	      0.91861627	      0.29556191	     21.64014372	     -7.99270645	    -13.43948881	    -65.30639360	      5.09834401	      5.80764595	      8.61755550	      3.93703037	      6.74673703	      1.63991067	    -11.80572270	      9.53752840	     -8.00337973	      0.57147796	     -5.86767483	     -5.13077088	     -0.91998695
      1.34133333	     -1.03395875	      2.78298152	      0.08074260	      0.40360150	      0.91943253	      0.29531748	     21.95229716	     -7.74065314	    -13.71526767	    -64.27462041	      5.34170028	      6.01835279	      8.62974562	      3.22232081	      6.48518916	      1.79339640	    -11.26627814	      9.51424933	     -7.92539930	      0.58004064	     -6.02817878	     -4.84265738	     -1.13863258
      1.34550000	     -0.89746590	      2.57630826	      0.23772250	      0.40850860	      0.92021806	      0.29505663	     22.21526550	     -7.53137289	    -13.99278183	    -63.20914624	      5.55597028	      6.19151838	      8.64144296	      2.44965182	      6.25650687	      1.96608078	    -10.68419532	      9.52042119	     -7.85591551	      0.59379373	     -6.23966851	     -4.57034478	     -1.42728933
      1.34966667	     -0.77814998	      2.37860887	      0.38924344	      0.41340971	      0.92090292	      0.29481624	     22.48682693	     -7.32608291	    -14.25952136	    -62.10081300	      5.75300704	      6.32919299	      8.65237696	      1.70238864	      6.03259865	      2.13418147	    -10.11384550	      9.51870488	     -7.78748430	      0.61174302	     -6.42645589	     -4.30126164	     -1.70223077
      1.35383333	     -0.66562834	      2.18676351	      0.54499542	      0.41829535	      0.92151221	      0.29458686	     22.74851384	     -7.12208229	    -14.52201272	    -60.93724395	      5.93533697	      6.43774840	      8.66145893	      0.97894959	      5.80845118	      2.28366079	     -9.57116971	      9.51759933	     -7.71278797	      0.63284992	     -6.60571205	     -4.05218658	     -1.96266601
      1.35800000	     -0.57882900	      1.99162882	      0.70677889	      0.42316895	      0.92202071	      0.29437214	     23.01872454	     -6.90867273	    -14.78299373	    -59.71631046	      6.10673155	      6.52472215	      8.66682612	      0.30881664	      5.57304384	      2.39800188	     -9.07521614	      9.51026183	     -7.61217988	      0.64846000	     -6.74747991	     -3.79559742	     -2.15784486
      1.36216667	     -0.44934534	      1.83863965	      0.84884842	      0.42806067	      0.92249569	      0.29417347	     23.24011896	     -6.73858297	    -15.01937865	    -58.47440513	      6.23082299	      6.53969539	      8.67207865	     -0.43879428	      5.38337567	      2.54357073	     -8.51809148	      9.54053416	     -7.52733056	      0.67800181	     -6.95025017	     -3.58920599	     -2.45738111
      1.36633333	     -0.37708077	      1.67201953	      1.00655965	      0.43293595	      0.92283286	      0.29397771	     23.49883941	     -6.54944043	    -15.26198086	    -57.16818793	      6.36197426	      6.56252934	      8.67418992	     -1.08189362	      5.17106053	      2.64329315	     -8.04150795	      9.54850212	     -7.41796467	      0.69769729	     -7.06979516	     -3.36390643	     -2.64900427
      1.37050000	     -0.28753859	      1.52960964	      1.15072802	      0.43781878	      0.92311306	      0.29380882	     23.73064583	     -6.37952867	    -15.48376517	    -55.82986933	      6.45757551	      6.52350193	      8.67410223	     -1.75564450	      4.98196790	      2.74734209	     -7.54095585	      9.57627766	     -7.29979988	      0.71949542	     -7.21728237	     -3.16581415	     -2.87187327
